<svg width="25" height="24" viewBox="0 0 25 24" fill="none" xmlns="http://www.w3.org/2000/svg">
<path d="M3.19995 5C3.19995 4.46957 3.41066 3.96086 3.78574 3.58579C4.16081 3.21071 4.66952 3 5.19995 3H8.47995C8.68974 3.00016 8.89417 3.0663 9.06431 3.18905C9.23444 3.3118 9.36166 3.48496 9.42795 3.684L10.926 8.177C11.0019 8.40534 10.9929 8.65339 10.9007 8.87564C10.8085 9.0979 10.6392 9.27945 10.424 9.387L8.16695 10.517C9.27327 12.9655 11.2344 14.9267 13.683 16.033L14.813 13.776C14.9205 13.5607 15.1021 13.3915 15.3243 13.2993C15.5466 13.2071 15.7946 13.1981 16.023 13.274L20.516 14.772C20.7152 14.8383 20.8884 14.9657 21.0112 15.136C21.134 15.3064 21.2 15.511 21.2 15.721V19C21.2 19.5304 20.9892 20.0391 20.6142 20.4142C20.2391 20.7893 19.7304 21 19.2 21H18.2C9.91595 21 3.19995 14.284 3.19995 6V5Z" stroke="#FFFFFF" stroke-width="2" stroke-linecap="round" stroke-linejoin="round"/>
</svg>
