<svg width="25" height="24" viewBox="0 0 25 24" fill="none" xmlns="http://www.w3.org/2000/svg" >
<path  d="M3.19995 3H5.19995L5.59995 5M5.59995 5H21.2L17.2 13H7.19995M5.59995 5L7.19995 13M7.19995 13L4.90695 15.293C4.27695 15.923 4.72295 17 5.61395 17H17.2M17.2 17C16.6695 17 16.1608 17.2107 15.7857 17.5858C15.4107 17.9609 15.2 18.4696 15.2 19C15.2 19.5304 15.4107 20.0391 15.7857 20.4142C16.1608 20.7893 16.6695 21 17.2 21C17.7304 21 18.2391 20.7893 18.6142 20.4142C18.9892 20.0391 19.2 19.5304 19.2 19C19.2 18.4696 18.9892 17.9609 18.6142 17.5858C18.2391 17.2107 17.7304 17 17.2 17ZM9.19995 19C9.19995 19.5304 8.98924 20.0391 8.61416 20.4142C8.23909 20.7893 7.73038 21 7.19995 21C6.66952 21 6.16081 20.7893 5.78574 20.4142C5.41066 20.0391 5.19995 19.5304 5.19995 19C5.19995 18.4696 5.41066 17.9609 5.78574 17.5858C6.16081 17.2107 6.66952 17 7.19995 17C7.73038 17 8.23909 17.2107 8.61416 17.5858C8.98924 17.9609 9.19995 18.4696 9.19995 19Z" stroke="#354A5F" stroke-width="2" stroke-linecap="round" stroke-linejoin="round"/>
</svg>
