<svg width="25" height="24" viewBox="0 0 25 24" fill="none" xmlns="http://www.w3.org/2000/svg">
  <path d="M4.7998 6C4.7998 5.46957 5.01052 4.96086 5.38559 4.58579C5.76066 4.21071 6.26937 4 6.7998 4H8.7998C9.33024 4 9.83894 4.21071 10.214 4.58579C10.5891 4.96086 10.7998 5.46957 10.7998 6V8C10.7998 8.53043 10.5891 9.03914 10.214 9.41421C9.83894 9.78929 9.33024 10 8.7998 10H6.7998C6.26937 10 5.76066 9.78929 5.38559 9.41421C5.01052 9.03914 4.7998 8.53043 4.7998 8V6ZM14.7998 6C14.7998 5.46957 15.0105 4.96086 15.3856 4.58579C15.7607 4.21071 16.2694 4 16.7998 4H18.7998C19.3302 4 19.8389 4.21071 20.214 4.58579C20.5891 4.96086 20.7998 5.46957 20.7998 6V8C20.7998 8.53043 20.5891 9.03914 20.214 9.41421C19.8389 9.78929 19.3302 10 18.7998 10H16.7998C16.2694 10 15.7607 9.78929 15.3856 9.41421C15.0105 9.03914 14.7998 8.53043 14.7998 8V6ZM4.7998 16C4.7998 15.4696 5.01052 14.9609 5.38559 14.5858C5.76066 14.2107 6.26937 14 6.7998 14H8.7998C9.33024 14 9.83894 14.2107 10.214 14.5858C10.5891 14.9609 10.7998 15.4696 10.7998 16V18C10.7998 18.5304 10.5891 19.0391 10.214 19.4142C9.83894 19.7893 9.33024 20 8.7998 20H6.7998C6.26937 20 5.76066 19.7893 5.38559 19.4142C5.01052 19.0391 4.7998 18.5304 4.7998 18V16ZM14.7998 16C14.7998 15.4696 15.0105 14.9609 15.3856 14.5858C15.7607 14.2107 16.2694 14 16.7998 14H18.7998C19.3302 14 19.8389 14.2107 20.214 14.5858C20.5891 14.9609 20.7998 15.4696 20.7998 16V18C20.7998 18.5304 20.5891 19.0391 20.214 19.4142C19.8389 19.7893 19.3302 20 18.7998 20H16.7998C16.2694 20 15.7607 19.7893 15.3856 19.4142C15.0105 19.0391 14.7998 18.5304 14.7998 18V16Z" fill="none" stroke="white" stroke-width="2" stroke-linecap="round" stroke-linejoin="round"/>
</svg>
