<svg width="45" height="32" viewBox="0 0 45 32" fill="none" xmlns="http://www.w3.org/2000/svg">
<rect x="0.5" y="0.5" width="44" height="30.7647" rx="4.79412" fill="#1A1A1A" stroke="#333333"/>
<path d="M18.5293 30.6767L43.6764 23.0664V26.7061C43.6764 28.899 41.8987 30.6767 39.7058 30.6767H18.5293Z" fill="#FD6020"/>
<path fill-rule="evenodd" clip-rule="evenodd" d="M38.9035 12.0588C40.287 12.0588 41.0479 12.6988 41.0479 13.9076C41.117 14.8321 40.4945 15.6143 39.6644 15.7565L41.5321 18.3875H40.0794L38.4884 15.8276H38.3501V18.3875H37.1741V12.0588H38.9035ZM38.3501 14.9744H38.696C39.4569 14.9744 39.8028 14.6189 39.8028 13.9789C39.8028 13.41 39.4569 13.0545 38.696 13.0545H38.3501V14.9744ZM33.0929 18.3875H36.4132V17.3209H34.2688V15.6143H36.344V14.5476H34.2688V13.1254H36.4132V12.0588H33.0929V18.3875ZM29.6342 16.3254L28.0432 12.0588H26.798L29.3575 18.5297H29.98L32.5395 12.0588H31.2943L29.6342 16.3254ZM15.592 15.2587C15.592 17.0365 16.9755 18.5298 18.7048 18.5298C19.2582 18.5298 19.7424 18.3875 20.2266 18.1742V16.752C19.8808 17.1787 19.3965 17.4631 18.8431 17.4631C17.7364 17.4631 16.8371 16.6098 16.8371 15.4721V15.3298C16.7679 14.1921 17.6672 13.1966 18.774 13.1255C19.3274 13.1255 19.8808 13.4099 20.2266 13.8366V12.4144C19.8116 12.1299 19.2582 12.0588 18.774 12.0588C16.9755 11.9166 15.592 13.4099 15.592 15.2587ZM13.4476 14.4765C12.7558 14.1921 12.5483 14.0499 12.5483 13.6943C12.6175 13.2677 12.9634 12.9121 13.3784 12.9832C13.7243 12.9832 14.0701 13.1966 14.3468 13.481L14.9694 12.6277C14.4852 12.201 13.8626 11.9166 13.2401 11.9166C12.2716 11.8455 11.4415 12.6277 11.3724 13.6232V13.6943C11.3724 14.5476 11.7182 15.0454 12.825 15.401C13.1017 15.4721 13.3784 15.6143 13.6551 15.7565C13.8626 15.8987 14.001 16.112 14.001 16.3965C14.001 16.8942 13.5859 17.3209 13.1709 17.3209H13.1017C12.5483 17.3209 12.0641 16.9654 11.8566 16.4676L11.0957 17.2498C11.5107 18.032 12.3408 18.4586 13.1709 18.4586C14.2777 18.5298 15.1769 17.6764 15.2461 16.5387V16.3254C15.1769 15.4721 14.831 15.0454 13.4476 14.4765ZM9.43543 18.3875H10.6114V12.0588H9.43543V18.3875ZM3.9707 12.0588H5.70005H6.04592C7.70609 12.1299 9.0204 13.5521 8.95122 15.2587C8.95122 16.1831 8.53618 17.0365 7.84444 17.6764C7.22188 18.1742 6.46096 18.4586 5.70005 18.3875H3.9707V12.0588ZM5.4926 17.3211C6.04599 17.3922 6.66856 17.1788 7.0836 16.8233C7.49864 16.3966 7.70617 15.8278 7.70617 15.1878C7.70617 14.6189 7.49864 14.05 7.0836 13.6234C6.66856 13.2678 6.04599 13.0545 5.4926 13.1256H5.14673V17.3211H5.4926Z" fill="white"/>
<path fill-rule="evenodd" clip-rule="evenodd" d="M23.7543 11.9121C22.0249 11.9121 20.5723 13.3343 20.5723 15.1831C20.5723 16.9609 21.9557 18.4542 23.7543 18.5253C25.5528 18.5964 26.9363 17.1031 27.0054 15.2542C26.9363 13.4054 25.5528 11.9121 23.7543 11.9121V11.9121Z" fill="#FD6020"/>
</svg>
