<svg width="29" height="29" viewBox="0 0 29 29" fill="none" xmlns="http://www.w3.org/2000/svg">
<g clip-path="url(#clip0_102_2223)">
<g clip-path="url(#clip1_102_2223)">
<g clip-path="url(#clip2_102_2223)">
<path d="M14.2002 28.48C21.9322 28.48 28.2002 22.212 28.2002 14.48C28.2002 6.74799 21.9322 0.47998 14.2002 0.47998C6.46821 0.47998 0.200195 6.74799 0.200195 14.48C0.200195 22.212 6.46821 28.48 14.2002 28.48Z" fill="#527EBD"/>
<path d="M16.9441 15.2079L17.2801 13.0799H15.2641V11.6799C15.2641 11.1199 15.5441 10.5039 16.4401 10.5039H17.3921V8.71195C17.3921 8.71195 16.5521 8.54395 15.7681 8.54395C14.0881 8.54395 12.9681 9.55195 12.9681 11.3999V13.0239H11.1201V15.1519H12.9681V20.3039H15.2641V15.1519H16.9441V15.2079Z" fill="white"/>
</g>
</g>
</g>
<defs>
<clipPath id="clip0_102_2223">
<rect width="28" height="28" fill="white" transform="translate(0.200195 0.47998)"/>
</clipPath>
<clipPath id="clip1_102_2223">
<rect width="28" height="28" fill="white" transform="translate(0.200195 0.47998)"/>
</clipPath>
<clipPath id="clip2_102_2223">
<rect width="28" height="28" fill="white" transform="translate(0.200195 0.47998)"/>
</clipPath>
</defs>
</svg>
