<svg width="80" height="38" viewBox="0 0 80 38" fill="none" xmlns="http://www.w3.org/2000/svg">
<g clip-path="url(#clip0_250_2688)">
<path d="M32.7036 11.9044C34.5802 13.0486 36.6802 13.6422 38.8392 13.4772C39.4124 13.4336 40.1559 13.2846 40.5331 12.8389C40.9475 12.3476 40.8367 11.6441 40.2975 11.298C39.7781 10.9642 39.1543 10.7793 38.5574 10.6431C37.3527 10.368 36.219 10.15 34.9606 9.72719C33.4126 9.20721 31.9031 8.2107 31.5534 6.48636C31.1871 4.6763 31.7148 2.90205 33.1552 1.71368C34.2337 0.823358 35.5908 0.332785 36.9831 0.160093C38.9833 -0.0874307 40.9533 0.0929356 42.8933 0.702473C43.4953 0.891153 44.0768 1.1438 44.6378 1.45911C44.6615 1.47255 44.6711 1.50069 44.6609 1.52563L43.2653 4.88545C43.2545 4.91039 43.225 4.92062 43.2019 4.90783C41.7046 4.09042 39.9126 3.56851 38.1975 3.67661C37.304 3.73289 36.1115 4.0207 36.0461 5.07669C36.0167 5.55254 36.2946 5.90112 36.7052 6.10004C37.1151 6.29896 37.5057 6.43903 37.8766 6.52025C39.3041 6.83366 40.7631 7.10997 42.1638 7.61778C42.9522 7.90304 43.8258 8.38532 44.3592 9.00766C44.7672 9.48284 45.0432 9.97475 45.188 10.4819C45.7336 12.4007 45.01 14.4398 43.4364 15.6185C42.1651 16.5715 40.66 16.9835 39.0576 17.0839C37.997 17.1497 36.9377 17.1094 35.8796 16.9617C34.2452 16.734 32.555 16.2281 31.1934 15.332C31.1723 15.3186 31.1666 15.3001 31.1768 15.277L32.676 11.9127C32.6805 11.9024 32.694 11.898 32.7036 11.9044Z" fill="white"/>
<path d="M9.76859 16.7829L5.16566 16.7849C5.15413 16.7849 5.14516 16.7759 5.14516 16.7644L5.14004 4.08501C5.14004 4.0735 5.13107 4.06454 5.11954 4.06454L0.125291 4.06646C0.113762 4.06646 0.104796 4.0575 0.104796 4.04599L0.103516 0.40156C0.103516 0.390048 0.112482 0.381094 0.12401 0.381094L14.7974 0.375977C14.8089 0.375977 14.8179 0.384931 14.8179 0.396444L14.8192 4.04024C14.8192 4.05175 14.8102 4.0607 14.7987 4.0607L9.80448 4.06326C9.79296 4.06326 9.78399 4.07221 9.78399 4.08372L9.78908 16.7625C9.78908 16.774 9.78011 16.7829 9.76859 16.7829Z" fill="white"/>
<path d="M21.1409 10.2255V13.1811C21.1409 13.1926 21.1504 13.2022 21.162 13.2022H29.7101C29.7216 13.2022 29.7312 13.2118 29.7312 13.2233V16.7628C29.7312 16.7743 29.7216 16.784 29.7101 16.784H16.5661C16.5546 16.784 16.5449 16.7743 16.5449 16.7628V0.400013C16.5449 0.3885 16.5546 0.378906 16.5661 0.378906H29.4053C29.4168 0.378906 29.4264 0.3885 29.4264 0.400013V3.94786C29.4264 3.95937 29.4168 3.96897 29.4053 3.96897H21.162C21.1504 3.96897 21.1409 3.97857 21.1409 3.99008V6.71348C21.1409 6.725 21.1504 6.73459 21.162 6.73459H28.4209C28.4324 6.73459 28.4421 6.74418 28.4421 6.75569V10.1833C28.4421 10.1948 28.4324 10.2044 28.4209 10.2044H21.162C21.1504 10.2044 21.1409 10.214 21.1409 10.2255Z" fill="white"/>
<path d="M60.0386 16.7398L67.2642 0.393617C67.268 0.384663 67.277 0.378906 67.2866 0.378906H71.8274C71.837 0.378906 71.846 0.384663 71.8498 0.393617L79.103 16.7501C79.1097 16.766 79.0985 16.784 79.0813 16.784H74.3008C74.2906 16.784 74.2816 16.7782 74.2778 16.7686L73.011 13.6179C73.0071 13.6084 72.9981 13.6026 72.9879 13.6026L66.0531 13.6032C66.0428 13.6032 66.0338 13.609 66.03 13.6186L64.7651 16.7686C64.7613 16.7782 64.7523 16.784 64.7421 16.784H47.5273C47.5138 16.784 47.5029 16.7731 47.5029 16.7596V0.403211C47.5029 0.389779 47.5138 0.378906 47.5273 0.378906H52.1303C52.1437 0.378906 52.1546 0.389779 52.1546 0.403211V13.082C52.1546 13.0954 52.1655 13.1062 52.1789 13.1062H59.9675C59.9809 13.1062 59.9918 13.1171 59.9918 13.1306V16.7302C59.9918 16.7565 60.0276 16.7641 60.0386 16.7398ZM67.4224 10.1539C67.4172 10.1667 67.4262 10.1808 67.4396 10.1808H71.6026C71.616 10.1808 71.625 10.1667 71.6199 10.1539L69.5391 4.97761C69.5326 4.96162 69.5096 4.96162 69.5032 4.97761L67.4224 10.1539Z" fill="white"/>
<path d="M3.71207 33.6374L0.0230563 33.6367C0.0102473 33.6367 0 33.6265 0 33.6137L0.00128094 20.3081C0.00128094 20.2954 0.011528 20.2852 0.0243371 20.2852L12.5317 20.2871C12.5446 20.2871 12.5548 20.2973 12.5548 20.3101L12.5529 33.6157C12.5529 33.6285 12.5426 33.6387 12.5299 33.6387H8.8408C8.82802 33.6387 8.81778 33.6285 8.81778 33.6157L8.81905 23.2995C8.81905 23.2868 8.80881 23.2766 8.79602 23.2766L3.75946 23.2759C3.74665 23.2759 3.7364 23.2862 3.7364 23.299L3.73513 33.6143C3.73513 33.6272 3.72488 33.6374 3.71207 33.6374Z" fill="white"/>
<path d="M42.54 30.6393L45.9511 30.6387C45.9639 30.6387 45.9748 30.6278 45.9748 30.615V20.3098C45.9748 20.297 45.9857 20.2861 45.9985 20.2861H49.6734C49.6862 20.2861 49.6971 20.297 49.6971 20.3098V33.6141C49.6971 33.6269 49.6862 33.6377 49.6734 33.6377H31.596C31.5832 33.6377 31.5723 33.6269 31.5723 33.6141V20.3098C31.5723 20.297 31.5832 20.2861 31.596 20.2861H35.2715C35.2844 20.2861 35.2952 20.297 35.2952 20.3098V30.6156C35.2952 30.6284 35.3061 30.6393 35.3189 30.6393H38.7697C38.7825 30.6393 38.7934 30.6284 38.7934 30.6156V20.3098C38.7934 20.297 38.8042 20.2861 38.8171 20.2861H42.4926C42.5054 20.2861 42.5163 20.297 42.5163 20.3098V30.6156C42.5163 30.6284 42.5272 30.6393 42.54 30.6393Z" fill="white"/>
<path d="M58.3267 26.6936C58.3324 26.7064 58.3509 26.7064 58.3574 26.6936L61.5667 20.3047C61.5725 20.2931 61.584 20.2861 61.5968 20.2861H65.2134C65.2435 20.2861 65.2512 20.2989 65.2371 20.3252C63.3766 23.7937 61.5244 27.245 59.6799 30.6777C59.1695 31.6269 58.4611 32.4929 57.5869 33.0896C56.0171 34.1622 54.1835 34.1475 52.4582 33.4426C52.4345 33.4331 52.4268 33.4158 52.4345 33.3915L53.3119 30.6687C53.3164 30.6553 53.3311 30.6476 53.3452 30.6515C53.8979 30.8062 54.4538 30.915 55.0174 30.8702C55.606 30.8242 56.0774 30.418 56.4098 29.9351C56.4225 29.9166 56.4238 29.8968 56.413 29.8769L51.256 20.3162C51.2484 20.3028 51.2586 20.2861 51.2739 20.2861H55.2044C55.2217 20.2861 55.2371 20.2958 55.2448 20.3111L58.3267 26.6936Z" fill="white"/>
<path d="M70.1596 28.5491V33.6179C70.1596 33.6288 70.1506 33.6377 70.1398 33.6377H66.4168C66.4059 33.6377 66.397 33.6288 66.397 33.6179V20.306C66.397 20.2951 66.4059 20.2861 66.4168 20.2861H70.1398C70.1506 20.2861 70.1596 20.2951 70.1596 20.306V25.4541C70.1596 25.465 70.1686 25.4739 70.1795 25.4739L71.9708 25.4746C71.9772 25.4746 71.9836 25.4707 71.9875 25.465L75.1584 20.2958C75.1621 20.2899 75.1688 20.2861 75.1748 20.2861H79.1018C79.1175 20.2861 79.1264 20.3034 79.1182 20.3168L74.9625 26.7314C74.958 26.7378 74.958 26.7455 74.9618 26.7525L79.1586 33.6083C79.1668 33.6211 79.1571 33.6384 79.1421 33.6384L74.9281 33.6371C74.9207 33.6371 74.9147 33.6332 74.9102 33.6275L71.8966 28.5389C71.8927 28.5331 71.8863 28.5293 71.8792 28.5293H70.1795C70.1686 28.5293 70.1596 28.5383 70.1596 28.5491Z" fill="white"/>
<path d="M17.202 32.2311C16.414 31.6169 15.7809 30.7951 15.3389 29.8946C14.801 28.7985 14.5973 27.5952 14.6648 26.3771C14.7475 24.8886 15.2537 23.5724 16.1831 22.4287C17.4005 20.931 19.2138 20.039 21.1342 19.8249C21.9576 19.7331 22.7729 19.7462 23.5802 19.8644C24.4497 19.9917 25.2734 20.2592 26.051 20.6674C26.6442 20.9787 27.1905 21.3791 27.6897 21.8684C28.4332 22.5971 28.9877 23.4726 29.3465 24.4435C29.7516 25.5397 29.8414 26.7672 29.6717 27.9143C29.543 28.7832 29.2538 29.5993 28.8042 30.3626C28.2041 31.3813 27.395 32.1907 26.3768 32.7911C25.5587 33.2736 24.6735 33.5939 23.7214 33.7521C22.8901 33.8905 22.0278 33.9111 21.1344 33.8145C20.7 33.7675 20.2688 33.6836 19.8408 33.5626C19.8362 33.5615 19.8329 33.5629 19.8309 33.5672C19.2949 34.715 18.7663 35.853 18.2446 36.9814C18.1594 37.1654 18.0875 37.2984 18.0286 37.3806C17.6383 37.925 16.9302 38.1359 16.3008 37.892C15.5077 37.585 15.1503 36.6712 15.5022 35.9131C16.069 34.6928 16.6298 33.4867 17.1841 32.2951C17.1908 32.2806 17.1982 32.2668 17.2062 32.2535C17.2115 32.2448 17.21 32.2372 17.202 32.2311ZM19.8911 23.7245C19.1895 24.2986 18.7275 25.1403 18.5921 26.0425C18.5005 26.6546 18.5161 27.2545 18.639 27.8425C18.7256 28.2569 18.8851 28.6471 19.1088 29.0165C19.2846 29.3063 19.4666 29.5405 19.6549 29.7188C20.1748 30.211 20.7956 30.5176 21.5167 30.6393C22.3743 30.784 23.2567 30.6585 24.0211 30.2442C24.6211 29.9188 25.0962 29.4089 25.407 28.7958C25.6618 28.2931 25.811 27.7678 25.8539 27.2196C25.8874 26.7927 25.8693 26.3824 25.7992 25.989C25.7282 25.5895 25.5879 25.1894 25.3781 24.7886C25.1833 24.4167 24.9016 24.082 24.582 23.7947C23.7185 23.0186 22.4446 22.788 21.3113 23.0399C20.7772 23.1585 20.3037 23.3868 19.8911 23.7245Z" fill="white"/>
<path d="M23.8069 24.0133C23.5099 23.9548 23.2524 24.0211 23.0341 24.2125C22.8809 24.3467 22.7761 24.5534 22.7571 24.7581C22.7136 25.2259 23.0346 25.6285 23.4982 25.6923C23.9349 25.7524 24.3423 25.4615 24.4406 25.0368C24.4849 24.8455 24.4626 24.6546 24.374 24.4642C24.3669 24.4488 24.3693 24.4472 24.3811 24.4591C25.6152 25.7017 25.669 27.7445 24.5178 29.0578C23.4982 30.221 21.7956 30.4555 20.5263 29.5464C20.0575 29.2108 19.702 28.7756 19.4596 28.241C18.7362 26.6444 19.3432 24.6727 20.9327 23.8722C21.7862 23.4425 22.7941 23.4593 23.6423 23.9094C23.6973 23.9386 23.7536 23.9698 23.8109 24.0026C23.8318 24.0145 23.8306 24.0182 23.8069 24.0133Z" fill="#FF0000"/>
</g>
<defs>
<clipPath id="clip0_250_2688">
<rect width="79.1667" height="38" fill="white"/>
</clipPath>
</defs>
</svg>
