<svg width="25" height="24" viewBox="0 0 25 24" fill="none" xmlns="http://www.w3.org/2000/svg">
<path d="M4.51795 6.31799C4.10008 6.73586 3.76861 7.23194 3.54246 7.7779C3.31631 8.32387 3.19991 8.90904 3.19991 9.49999C3.19991 10.0909 3.31631 10.6761 3.54246 11.2221C3.76861 11.768 4.10008 12.2641 4.51795 12.682L12.2 20.364L19.882 12.682C20.7259 11.8381 21.2 10.6935 21.2 9.49999C21.2 8.30651 20.7259 7.16191 19.882 6.31799C19.038 5.47407 17.8934 4.99997 16.7 4.99997C15.5065 4.99997 14.3619 5.47407 13.518 6.31799L12.2 7.63599L10.882 6.31799C10.4641 5.90012 9.96801 5.56865 9.42204 5.3425C8.87607 5.11635 8.29091 4.99995 7.69995 4.99995C7.109 4.99995 6.52383 5.11635 5.97786 5.3425C5.43189 5.56865 4.93582 5.90012 4.51795 6.31799Z" stroke="#354A5F" stroke-width="2" stroke-linecap="round" stroke-linejoin="round"/>
</svg>
