<svg width="17" height="16" viewBox="0 0 17 16" xmlns="http://www.w3.org/2000/svg" class="icon">
  <path d="M8.49967 3.85748C6.21939 3.85748 4.39516 5.68171 4.39516 7.962C4.39516 10.2423 6.21939 12.0665 8.49967 12.0665C10.78 12.0665 12.6042 10.2423 12.6042 7.962C12.6042 5.68171 10.78 3.85748 8.49967 3.85748ZM8.49967 10.6223C7.05549 10.6223 5.83934 9.40618 5.83934 7.962C5.83934 6.51781 7.05549 5.30166 8.49967 5.30166C9.94386 5.30166 11.16 6.51781 11.16 7.962C11.16 9.40618 9.94386 10.6223 8.49967 10.6223ZM13.7443 3.70546C13.7443 4.23753 13.2883 4.69359 12.7562 4.69359C12.2241 4.69359 11.7681 4.23753 11.7681 3.70546C11.7681 3.1734 12.2241 2.71734 12.7562 2.71734C13.2883 2.71734 13.7443 3.1734 13.7443 3.70546ZM16.4047 4.69359C16.3287 3.40143 16.0246 2.26128 15.1125 1.34917C14.2004 0.437054 13.0602 0.133017 11.7681 0.0570071C10.4759 -0.0190024 6.52343 -0.0190024 5.15526 0.0570071C3.8631 0.133017 2.72295 0.437054 1.81084 1.34917C0.898725 2.26128 0.594687 3.40143 0.518677 4.69359C0.442668 5.98575 0.442668 9.93824 0.518677 11.3064C0.594687 12.5986 0.898725 13.7387 1.81084 14.6508C2.72295 15.5629 3.8631 15.867 5.15526 15.943C6.44742 16.019 10.3999 16.019 11.7681 15.943C13.0602 15.867 14.2004 15.5629 15.1125 14.6508C16.0246 13.7387 16.3287 12.5986 16.4047 11.3064C16.4807 9.93824 16.4807 5.98575 16.4047 4.69359ZM14.7325 12.6746C14.4284 13.3587 13.8963 13.8907 13.2123 14.1948C12.1481 14.5748 9.63982 14.4988 8.49967 14.4988C7.35953 14.4988 4.85122 14.5748 3.78708 14.1948C3.103 13.8907 2.57093 13.3587 2.2669 12.6746C1.88685 11.6105 1.96286 9.10214 1.96286 7.962C1.96286 6.82185 1.88685 4.31354 2.2669 3.24941C2.57093 2.56532 3.103 2.03325 3.78708 1.72922C4.85122 1.34917 7.35953 1.42518 8.49967 1.42518C9.63982 1.42518 12.1481 1.34917 13.2123 1.72922C13.8963 2.03325 14.4284 2.56532 14.7325 3.24941C15.1125 4.31354 15.0365 6.82185 15.0365 7.962C15.0365 9.10214 15.1125 11.6105 14.7325 12.6746Z" fill="currentColor"/>
</svg>
