<svg width="20" height="20" viewBox="0 0 20 20" fill="none" xmlns="http://www.w3.org/2000/svg">
<path d="M3.59861 5.26487C3.25039 5.61309 2.97416 6.02649 2.7857 6.48146C2.59724 6.93644 2.50024 7.42408 2.50024 7.91654C2.50024 8.409 2.59724 8.89664 2.7857 9.35161C2.97416 9.80658 3.25039 10.22 3.59861 10.5682L10.0003 16.9699L16.4019 10.5682C17.1052 9.86494 17.5003 8.9111 17.5003 7.91654C17.5003 6.92197 17.1052 5.96814 16.4019 5.26487C15.6987 4.5616 14.7448 4.16651 13.7503 4.16651C12.7557 4.16651 11.8019 4.5616 11.0986 5.26487L10.0003 6.3632L8.90194 5.26487C8.55372 4.91665 8.14032 4.64042 7.68535 4.45196C7.23038 4.2635 6.74274 4.1665 6.25028 4.1665C5.75782 4.1665 5.27018 4.2635 4.8152 4.45196C4.36023 4.64042 3.94683 4.91665 3.59861 5.26487Z" stroke="#FA4E4E" stroke-width="1.66667" stroke-linecap="round" stroke-linejoin="round"/>
</svg>
