<svg width="22" height="26" viewBox="0 0 22 26" fill="none" xmlns="http://www.w3.org/2000/svg">
<path d="M4.1189 17.9543C3.01403 17.0976 2.12624 15.9514 1.50657 14.6955C0.752421 13.1668 0.466798 11.4885 0.561447 9.78958C0.677374 7.71352 1.38708 5.87768 2.69026 4.28257C4.39718 2.1936 6.9396 0.949506 9.63221 0.650874C10.7867 0.522903 11.9298 0.541127 13.0617 0.705958C14.2809 0.883597 15.4358 1.25668 16.5261 1.82593C17.3578 2.26014 18.1238 2.81856 18.8237 3.50111C19.8661 4.51738 20.6436 5.73846 21.1468 7.09272C21.7147 8.6216 21.8406 10.3336 21.6026 11.9335C21.4222 13.1453 21.0167 14.2836 20.3863 15.3482C19.545 16.769 18.4104 17.898 16.9828 18.7353C15.8357 19.4083 14.5947 19.855 13.2598 20.0757C12.0941 20.2688 10.8852 20.2975 9.63252 20.1628C9.02344 20.0972 8.41876 19.9802 7.81869 19.8115C7.81219 19.8099 7.80768 19.8118 7.80485 19.8178C7.05332 21.4188 6.31217 23.0059 5.58066 24.5797C5.46117 24.8364 5.36034 25.0219 5.27785 25.1365C4.7306 25.8958 3.73779 26.1899 2.85524 25.8497C1.74324 25.4216 1.24212 24.1471 1.73559 23.0898C2.5302 21.3877 3.31653 19.7056 4.09374 18.0435C4.10307 18.0233 4.11345 18.0042 4.12466 17.9856C4.1321 17.9734 4.13011 17.9628 4.1189 17.9543ZM7.88923 6.08988C6.90553 6.89051 6.25777 8.06452 6.06795 9.32278C5.93944 10.1765 5.96135 11.0133 6.13367 11.8334C6.25515 12.4114 6.47872 12.9556 6.79243 13.4708C7.03886 13.8749 7.29398 14.2017 7.55812 14.4503C8.287 15.1367 9.1574 15.5645 10.1686 15.7341C11.371 15.936 12.6081 15.761 13.6799 15.1831C14.5212 14.7293 15.1873 14.018 15.6232 13.1629C15.9804 12.4619 16.1895 11.7291 16.2497 10.9646C16.2967 10.3691 16.2712 9.79697 16.173 9.24823C16.0735 8.69105 15.8767 8.13304 15.5826 7.57399C15.3095 7.05523 14.9145 6.58844 14.4664 6.18776C13.2557 5.10527 11.4695 4.78363 9.88052 5.13495C9.13161 5.3004 8.46771 5.61882 7.88923 6.08988Z" fill="#354A5F"/>
</svg>
