<svg width="111" height="53" viewBox="0 0 111 53" fill="none" xmlns="http://www.w3.org/2000/svg">
<g clip-path="url(#clip0_209_1100)">
<path d="M45.8537 16.6037C48.4848 18.1996 51.4293 19.0274 54.4564 18.7973C55.2601 18.7366 56.3026 18.5287 56.8315 17.907C57.4125 17.2219 57.2572 16.2406 56.5011 15.758C55.7729 15.2923 54.8982 15.0345 54.0613 14.8445C52.3722 14.4609 50.7827 14.1567 49.0182 13.5671C46.8478 12.8418 44.7313 11.4519 44.2409 9.04694C43.7273 6.52238 44.4672 4.04777 46.4868 2.39031C47.999 1.14855 49.9018 0.464327 51.854 0.223468C54.6585 -0.121763 57.4207 0.129801 60.1407 0.979945C60.9847 1.2431 61.8001 1.59548 62.5868 2.03526C62.62 2.05399 62.6334 2.09325 62.619 2.12804L60.6623 6.81409C60.6471 6.84888 60.6058 6.86315 60.5735 6.84531C58.474 5.70525 55.9614 4.97731 53.5567 5.12808C52.3039 5.20658 50.6319 5.608 50.5403 7.08082C50.499 7.74452 50.8887 8.23069 51.4643 8.50813C52.039 8.78557 52.5868 8.98093 53.1068 9.09422C55.1083 9.53133 57.1539 9.91671 59.1179 10.625C60.2233 11.0228 61.4481 11.6955 62.1961 12.5635C62.7682 13.2262 63.1552 13.9123 63.3581 14.6197C64.1231 17.2959 63.1085 20.1399 60.9022 21.7839C59.1197 23.1131 57.0094 23.6877 54.7627 23.8277C53.2755 23.9195 51.7903 23.8633 50.3068 23.6573C48.0151 23.3397 45.6454 22.6341 43.7362 21.3843C43.7067 21.3655 43.6986 21.3397 43.713 21.3076L45.8151 16.6152C45.8214 16.601 45.8402 16.5947 45.8537 16.6037Z" fill="#354A5F"/>
<path d="M13.6967 23.4078L7.24293 23.4105C7.22676 23.4105 7.21418 23.398 7.21418 23.382L7.207 5.69754C7.207 5.68148 7.19443 5.66899 7.17826 5.66899L0.175794 5.67166C0.159631 5.67166 0.147059 5.65918 0.147059 5.64312L0.145264 0.560097C0.145264 0.54404 0.157835 0.531551 0.173999 0.531551L20.7477 0.524414C20.7638 0.524414 20.7764 0.536903 20.7764 0.55296L20.7782 5.63509C20.7782 5.65115 20.7656 5.66363 20.7495 5.66363L13.747 5.6672C13.7309 5.6672 13.7183 5.67969 13.7183 5.69575L13.7254 23.3792C13.7254 23.3953 13.7129 23.4078 13.6967 23.4078Z" fill="#354A5F"/>
<path d="M29.6415 14.2612V18.3836C29.6415 18.3996 29.6549 18.4129 29.6711 18.4129H41.6565C41.6727 18.4129 41.6861 18.4263 41.6861 18.4424V23.3791C41.6861 23.3951 41.6727 23.4086 41.6565 23.4086H23.2272C23.211 23.4086 23.1975 23.3951 23.1975 23.3791V0.55727C23.1975 0.541213 23.211 0.527832 23.2272 0.527832H41.2291C41.2452 0.527832 41.2586 0.541213 41.2586 0.55727V5.50558C41.2586 5.52164 41.2452 5.53503 41.2291 5.53503H29.6711C29.6549 5.53503 29.6415 5.54841 29.6415 5.56447V9.3629C29.6415 9.37896 29.6549 9.39234 29.6711 9.39234H39.8489C39.865 9.39234 39.8785 9.40572 39.8785 9.42177V14.2024C39.8785 14.2184 39.865 14.2319 39.8489 14.2319H29.6711C29.6549 14.2319 29.6415 14.2452 29.6415 14.2612Z" fill="#354A5F"/>
<path d="M84.1805 23.347L94.3116 0.54835C94.3169 0.535861 94.3295 0.527832 94.343 0.527832H100.71C100.723 0.527832 100.736 0.535861 100.741 0.54835L110.911 23.3613C110.92 23.3836 110.905 23.4086 110.88 23.4086H104.178C104.163 23.4086 104.151 23.4005 104.145 23.3871L102.369 18.9928C102.364 18.9795 102.351 18.9714 102.337 18.9714L92.6135 18.9723C92.5991 18.9723 92.5865 18.9803 92.5812 18.9937L90.8076 23.3871C90.8022 23.4005 90.7897 23.4086 90.7753 23.4086H66.6384C66.6196 23.4086 66.6042 23.3934 66.6042 23.3746V0.561731C66.6042 0.542997 66.6196 0.527832 66.6384 0.527832H73.0923C73.1111 0.527832 73.1263 0.542997 73.1263 0.561731V18.2453C73.1263 18.264 73.1416 18.2791 73.1605 18.2791H84.0808C84.0997 18.2791 84.115 18.2943 84.115 18.3131V23.3336C84.115 23.3702 84.1652 23.3809 84.1805 23.347ZM94.5334 14.1614C94.5261 14.1792 94.5387 14.1988 94.5576 14.1988H100.394C100.413 14.1988 100.426 14.1792 100.419 14.1614L97.5012 6.94182C97.4922 6.91952 97.4599 6.91952 97.4509 6.94182L94.5334 14.1614Z" fill="#354A5F"/>
<path d="M5.20472 46.9149L0.0323274 46.9139C0.0143677 46.9139 0 46.8997 0 46.8819L0.00179601 28.3241C0.00179601 28.3063 0.0161634 28.292 0.0341231 28.292L17.5708 28.2947C17.5888 28.2947 17.6032 28.309 17.6032 28.3268L17.6005 46.8846C17.6005 46.9024 17.5861 46.9167 17.5682 46.9167H12.3957C12.3778 46.9167 12.3635 46.9024 12.3635 46.8846L12.3652 32.4963C12.3652 32.4785 12.3509 32.4642 12.3329 32.4642L5.27116 32.4633C5.2532 32.4633 5.23883 32.4776 5.23883 32.4954L5.23704 46.8827C5.23704 46.9006 5.22267 46.9149 5.20472 46.9149Z" fill="#354A5F"/>
<path d="M59.6453 42.7334L64.4279 42.7326C64.446 42.7326 64.4612 42.7174 64.4612 42.6996V28.3265C64.4612 28.3087 64.4765 28.2935 64.4944 28.2935H69.647C69.6649 28.2935 69.6803 28.3087 69.6803 28.3265V46.8824C69.6803 46.9003 69.6649 46.9154 69.647 46.9154H44.3006C44.2826 46.9154 44.2673 46.9003 44.2673 46.8824V28.3265C44.2673 28.3087 44.2826 28.2935 44.3006 28.2935H49.454C49.4721 28.2935 49.4873 28.3087 49.4873 28.3265V42.7004C49.4873 42.7182 49.5026 42.7334 49.5205 42.7334H54.3589C54.3768 42.7334 54.3921 42.7182 54.3921 42.7004V28.3265C54.3921 28.3087 54.4073 28.2935 54.4254 28.2935H59.5788C59.5968 28.2935 59.6121 28.3087 59.6121 28.3265V42.7004C59.6121 42.7182 59.6274 42.7334 59.6453 42.7334Z" fill="#354A5F"/>
<path d="M81.7802 37.2303C81.7883 37.2481 81.8143 37.2481 81.8233 37.2303L86.323 28.3194C86.3312 28.3032 86.3474 28.2935 86.3653 28.2935H91.4362C91.4784 28.2935 91.4892 28.3113 91.4694 28.3479C88.8607 33.1856 86.2638 37.9992 83.6776 42.7869C82.9619 44.1108 81.9688 45.3186 80.7431 46.1509C78.542 47.6469 75.9711 47.6264 73.552 46.6433C73.5187 46.63 73.5079 46.6059 73.5187 46.572L74.749 42.7744C74.7552 42.7557 74.7759 42.745 74.7957 42.7504C75.5706 42.9662 76.3501 43.1179 77.1403 43.0555C77.9655 42.9912 78.6265 42.4248 79.0925 41.7513C79.1105 41.7254 79.1122 41.6978 79.097 41.6701L71.8664 28.3354C71.8557 28.3167 71.8701 28.2935 71.8916 28.2935H77.4025C77.4268 28.2935 77.4483 28.3069 77.4591 28.3282L81.7802 37.2303Z" fill="#354A5F"/>
<path d="M98.3711 39.8181V46.8878C98.3711 46.9029 98.3585 46.9154 98.3433 46.9154H93.1232C93.108 46.9154 93.0955 46.9029 93.0955 46.8878V28.3212C93.0955 28.306 93.108 28.2935 93.1232 28.2935H98.3433C98.3585 28.2935 98.3711 28.306 98.3711 28.3212V35.5014C98.3711 35.5166 98.3836 35.529 98.3989 35.529L100.911 35.53C100.92 35.53 100.929 35.5246 100.934 35.5166L105.38 28.3069C105.385 28.2988 105.395 28.2935 105.403 28.2935H110.909C110.931 28.2935 110.944 28.3175 110.932 28.3363L105.105 37.2828C105.099 37.2918 105.099 37.3025 105.104 37.3123L110.989 46.8744C111 46.8923 110.986 46.9163 110.966 46.9163L105.057 46.9146C105.047 46.9146 105.038 46.9092 105.032 46.9011L100.806 39.8038C100.801 39.7958 100.792 39.7905 100.782 39.7905H98.3989C98.3836 39.7905 98.3711 39.803 98.3711 39.8181Z" fill="#354A5F"/>
<path d="M24.1189 44.9543C23.014 44.0976 22.1262 42.9514 21.5066 41.6955C20.7524 40.1668 20.4668 38.4885 20.5614 36.7896C20.6774 34.7135 21.3871 32.8777 22.6903 31.2826C24.3972 29.1936 26.9396 27.9495 29.6322 27.6509C30.7867 27.5229 31.9298 27.5411 33.0617 27.706C34.2809 27.8836 35.4358 28.2567 36.5261 28.8259C37.3578 29.2601 38.1238 29.8186 38.8237 30.5011C39.8661 31.5174 40.6436 32.7385 41.1468 34.0927C41.7147 35.6216 41.8406 37.3336 41.6026 38.9335C41.4222 40.1453 41.0167 41.2836 40.3863 42.3482C39.545 43.769 38.4104 44.898 36.9828 45.7353C35.8357 46.4083 34.5947 46.855 33.2598 47.0757C32.0941 47.2688 30.8852 47.2975 29.6325 47.1628C29.0234 47.0972 28.4188 46.9802 27.8187 46.8115C27.8122 46.8099 27.8077 46.8118 27.8049 46.8178C27.0533 48.4188 26.3122 50.0059 25.5807 51.5797C25.4612 51.8364 25.3603 52.0219 25.2778 52.1365C24.7306 52.8958 23.7378 53.1899 22.8552 52.8497C21.7432 52.4216 21.2421 51.1471 21.7356 50.0898C22.5302 48.3877 23.3165 46.7056 24.0937 45.0435C24.1031 45.0233 24.1134 45.0042 24.1247 44.9856C24.1321 44.9734 24.1301 44.9628 24.1189 44.9543ZM27.8892 33.0899C26.9055 33.8905 26.2578 35.0645 26.0679 36.3228C25.9394 37.1765 25.9613 38.0133 26.1337 38.8334C26.2551 39.4114 26.4787 39.9556 26.7924 40.4708C27.0389 40.8749 27.294 41.2017 27.5581 41.4503C28.287 42.1367 29.1574 42.5645 30.1686 42.7341C31.371 42.936 32.6081 42.761 33.6799 42.1831C34.5212 41.7293 35.1873 41.018 35.6232 40.1629C35.9804 39.4619 36.1895 38.7291 36.2497 37.9646C36.2967 37.3691 36.2712 36.797 36.173 36.2482C36.0735 35.691 35.8767 35.133 35.5826 34.574C35.3095 34.0552 34.9145 33.5884 34.4664 33.1878C33.2557 32.1053 31.4695 31.7836 29.8805 32.1349C29.1316 32.3004 28.4677 32.6188 27.8892 33.0899Z" fill="#354A5F"/>
<path d="M33.38 33.4923C32.9635 33.4108 32.6025 33.5032 32.2964 33.7701C32.0815 33.9573 31.9347 34.2457 31.9079 34.5311C31.847 35.1835 32.297 35.7451 32.9471 35.8341C33.5594 35.9179 34.1306 35.5121 34.2684 34.9199C34.3306 34.653 34.2993 34.3868 34.175 34.1211C34.1651 34.0997 34.1685 34.0975 34.185 34.1142C35.9154 35.8472 35.9907 38.6964 34.3767 40.5281C32.9471 42.1504 30.5599 42.4774 28.7802 41.2096C28.1228 40.7414 27.6244 40.1345 27.2846 39.3889C26.2703 37.162 27.1213 34.4121 29.35 33.2955C30.5467 32.6962 31.9598 32.7196 33.1491 33.3474C33.2263 33.3881 33.3052 33.4316 33.3855 33.4773C33.4148 33.494 33.4132 33.4991 33.38 33.4923Z" fill="#FF0000"/>
</g>
<defs>
<clipPath id="clip0_209_1100">
<rect width="111" height="53" fill="white"/>
</clipPath>
</defs>
</svg>
