<svg width="45" height="32" viewBox="0 0 45 32" fill="none" xmlns="http://www.w3.org/2000/svg">
<rect x="0.5" y="0.5" width="44" height="30.7647" rx="4.79412" fill="#1A1A1A" stroke="#333333"/>
<path fill-rule="evenodd" clip-rule="evenodd" d="M28.5585 24.3925C33.5149 24.3925 37.5329 20.4223 37.5329 15.5249C37.5329 10.6274 33.5149 6.65723 28.5585 6.65723C26.3371 6.65723 24.3042 7.45468 22.7371 8.77567C21.17 7.45473 19.1372 6.65731 16.9158 6.65731C11.9594 6.65731 7.94141 10.6275 7.94141 15.525C7.94141 20.4224 11.9594 24.3926 16.9158 24.3926C19.1372 24.3926 21.1701 23.5951 22.7372 22.2742C24.3043 23.5951 26.3371 24.3925 28.5585 24.3925Z" fill="#ED0006"/>
<path fill-rule="evenodd" clip-rule="evenodd" d="M22.7373 22.2742C24.6669 20.6477 25.8905 18.2275 25.8905 15.5249C25.8905 12.8223 24.6669 10.402 22.7373 8.77555C24.3044 7.45464 26.3372 6.65723 28.5585 6.65723C33.515 6.65723 37.533 10.6274 37.533 15.5249C37.533 20.4223 33.515 24.3925 28.5585 24.3925C26.3372 24.3925 24.3044 23.5951 22.7373 22.2742Z" fill="#F9A000"/>
<path fill-rule="evenodd" clip-rule="evenodd" d="M22.7371 22.2739C24.6667 20.6474 25.8903 18.2272 25.8903 15.5246C25.8903 12.8221 24.6667 10.4019 22.7371 8.77539C20.8075 10.4019 19.584 12.8221 19.584 15.5246C19.584 18.2272 20.8075 20.6474 22.7371 22.2739Z" fill="#FF5E00"/>
</svg>
