<svg width="20" height="20" viewBox="0 0 20 20" fill="none" xmlns="http://www.w3.org/2000/svg">
<path d="M9.16679 2.5459C7.76302 2.70278 6.43209 3.25283 5.32715 4.13276C4.22222 5.01269 3.38819 6.18673 2.92107 7.51975C2.45395 8.85277 2.37271 10.2906 2.68671 11.6678C3.00071 13.0449 3.69718 14.3054 4.69597 15.3042C5.69476 16.303 6.95527 16.9995 8.33242 17.3135C9.70958 17.6275 11.1474 17.5462 12.4804 17.0791C13.8135 16.612 14.9875 15.778 15.8674 14.673C16.7474 13.5681 17.2974 12.2372 17.4543 10.8334H9.16679V2.5459Z" stroke="white" stroke-width="1.66667" stroke-linecap="round" stroke-linejoin="round"/>
<path d="M17.0733 7.50009H12.5V2.92676C13.5545 3.30086 14.5122 3.90554 15.3034 4.69671C16.0946 5.48788 16.6992 6.4456 17.0733 7.50009Z" stroke="white" stroke-width="1.66667" stroke-linecap="round" stroke-linejoin="round"/>
</svg>
