<svg width="25" height="25" viewBox="0 0 25 25" fill="none" xmlns="http://www.w3.org/2000/svg">
<path d="M12.1104 9.33984V12.3398M12.1104 12.3398V15.3398M12.1104 12.3398H15.1104M12.1104 12.3398H9.11035M21.1104 12.3398C21.1104 13.5217 20.8776 14.6921 20.4253 15.784C19.973 16.8759 19.31 17.8681 18.4743 18.7038C17.6386 19.5395 16.6464 20.2025 15.5545 20.6548C14.4626 21.1071 13.2922 21.3398 12.1104 21.3398C10.9285 21.3398 9.75813 21.1071 8.6662 20.6548C7.57427 20.2025 6.58212 19.5395 5.74639 18.7038C4.91066 17.8681 4.24773 16.8759 3.79544 15.784C3.34314 14.6921 3.11035 13.5217 3.11035 12.3398C3.11035 9.9529 4.05856 7.66371 5.74639 5.97588C7.43422 4.28806 9.7234 3.33984 12.1104 3.33984C14.4973 3.33984 16.7865 4.28806 18.4743 5.97588C20.1621 7.66371 21.1104 9.9529 21.1104 12.3398Z" stroke="#354A5F" stroke-width="2" stroke-linecap="round" stroke-linejoin="round"/>
</svg>
