<svg width="29" height="29" viewBox="0 0 29 29" fill="none" xmlns="http://www.w3.org/2000/svg">
<g clip-path="url(#clip0_102_2258)">
<g clip-path="url(#clip1_102_2258)">
<g clip-path="url(#clip2_102_2258)">
<path d="M14.2002 28.48C21.9322 28.48 28.2002 22.212 28.2002 14.48C28.2002 6.74799 21.9322 0.47998 14.2002 0.47998C6.46821 0.47998 0.200195 6.74799 0.200195 14.48C0.200195 22.212 6.46821 28.48 14.2002 28.48Z" fill="#37A6DE"/>
<path d="M20.024 10.4478L18.232 18.7918C18.12 19.4078 17.728 19.5198 17.28 19.2398L14.592 17.2798L13.304 18.5118C13.136 18.6798 13.024 18.7918 12.744 18.7918L12.912 16.0478L17.896 11.5118C18.12 11.3438 17.84 11.2318 17.56 11.3998L11.344 15.3198L8.76805 14.4798C8.20805 14.3118 8.15205 13.9198 8.88005 13.6398L19.296 9.6078C19.8 9.4398 20.192 9.7198 20.024 10.4478Z" fill="white"/>
</g>
</g>
</g>
<defs>
<clipPath id="clip0_102_2258">
<rect width="28" height="28" fill="white" transform="translate(0.200195 0.47998)"/>
</clipPath>
<clipPath id="clip1_102_2258">
<rect width="28" height="28" fill="white" transform="translate(0.200195 0.47998)"/>
</clipPath>
<clipPath id="clip2_102_2258">
<rect width="28" height="28" fill="white" transform="translate(0.200195 0.47998)"/>
</clipPath>
</defs>
</svg>
