<svg width="16" height="17" viewBox="0 0 16 17" fill="none" xmlns="http://www.w3.org/2000/svg">
<path fill-rule="evenodd" clip-rule="evenodd" d="M10.5001 5.50023C10.5001 6.16327 10.2367 6.79915 9.76783 7.26799C9.29899 7.73683 8.6631 8.00023 8.00006 8.00023C7.33702 8.00023 6.70114 7.73683 6.2323 7.26799C5.76346 6.79915 5.50006 6.16327 5.50006 5.50023C5.50006 4.83718 5.76346 4.2013 6.2323 3.73246C6.70114 3.26362 7.33702 3.00023 8.00006 3.00023C8.6631 3.00023 9.29899 3.26362 9.76783 3.73246C10.2367 4.2013 10.5001 4.83718 10.5001 5.50023ZM10.5611 8.57323C11.1924 8.04687 11.6462 7.3388 11.8608 6.54536C12.0754 5.75192 12.0404 4.91163 11.7605 4.13881C11.4806 3.36599 10.9694 2.69815 10.2964 2.22617C9.62351 1.75419 8.82152 1.50098 7.99956 1.50098C7.17761 1.50098 6.37561 1.75419 5.70268 2.22617C5.02975 2.69815 4.51856 3.36599 4.23865 4.13881C3.95874 4.91163 3.9237 5.75192 4.13831 6.54536C4.35292 7.3388 4.80675 8.04687 5.43806 8.57323C4.45365 9.03863 3.61434 9.76298 3.00997 10.6687C2.4056 11.5745 2.05892 12.6276 2.00706 13.7152C2.00224 13.9112 2.07434 14.1013 2.20794 14.2448C2.34153 14.3883 2.526 14.4737 2.72183 14.4829C2.91766 14.492 3.10929 14.4241 3.25568 14.2937C3.40208 14.1633 3.49159 13.9808 3.50506 13.7852C3.55958 12.6298 4.05696 11.5396 4.89397 10.7412C5.73097 9.94276 6.8433 9.4973 8.00006 9.4973C9.15682 9.4973 10.2692 9.94276 11.1062 10.7412C11.9432 11.5396 12.4405 12.6298 12.4951 13.7852C12.4975 13.8851 12.5199 13.9834 12.5609 14.0745C12.6019 14.1656 12.6606 14.2476 12.7338 14.3157C12.8069 14.3837 12.8928 14.4365 12.9866 14.4709C13.0804 14.5053 13.1801 14.5206 13.2798 14.5159C13.3796 14.5113 13.4775 14.4867 13.5676 14.4437C13.6578 14.4008 13.7384 14.3402 13.8049 14.2656C13.8713 14.191 13.9222 14.1039 13.9545 14.0094C13.9868 13.9149 13.9999 13.8149 13.9931 13.7152C13.941 12.6275 13.5941 11.5744 12.9896 10.6686C12.3851 9.76289 11.5456 9.03858 10.5611 8.57323Z" fill="white"/>
</svg>
