<svg  width="17" height="18" viewBox="0 0 17 18" fill="none" xmlns="http://www.w3.org/2000/svg" class="icon">
<path fill-rule="evenodd" clip-rule="evenodd" d="M12.4426 0.909276C9.82078 0.32321 7.1019 0.32321 4.48009 0.909276L4.19759 0.971776C3.4601 1.13666 2.78276 1.50276 2.24081 2.02941C1.69886 2.55607 1.31352 3.22265 1.12759 3.95511C0.463004 6.57388 0.463004 9.31717 1.12759 11.9359C1.3049 12.6345 1.66376 13.2737 2.16778 13.7889C2.67181 14.304 3.30307 14.6768 3.99759 14.8693L4.38509 17.1826C4.39746 17.2561 4.4293 17.3249 4.47728 17.3818C4.52527 17.4388 4.58766 17.4819 4.65794 17.5066C4.72823 17.5312 4.80385 17.5366 4.87692 17.5221C4.94999 17.5077 5.01785 17.4739 5.07342 17.4243L7.34926 15.3884C9.05766 15.4927 10.7722 15.3561 12.4426 14.9826L12.7259 14.9201C13.4634 14.7552 14.1407 14.3891 14.6827 13.8625C15.2246 13.3358 15.61 12.6692 15.7959 11.9368C16.4604 9.318 16.4604 6.57472 15.7959 3.95594C15.6099 3.22337 15.2245 2.55672 14.6824 2.03006C14.1402 1.5034 13.4627 1.13736 12.7251 0.972609L12.4426 0.909276ZM5.18342 3.88761C5.02855 3.86507 4.87062 3.89624 4.73592 3.97594H4.72426C4.41176 4.15928 4.13009 4.39011 3.89009 4.66178C3.69009 4.89261 3.58176 5.12594 3.55342 5.35094C3.53676 5.48428 3.54842 5.61928 3.58759 5.74678L3.60259 5.75511C3.82759 6.41594 4.12092 7.05178 4.47926 7.65011C4.9413 8.49052 5.50988 9.26777 6.17092 9.96261L6.19092 9.99094L6.22259 10.0143L6.24176 10.0368L6.26509 10.0568C6.96236 10.7198 7.74144 11.2911 8.58342 11.7568C9.54592 12.2809 10.1301 12.5284 10.4809 12.6318V12.6368C10.5834 12.6684 10.6768 12.6826 10.7709 12.6826C11.0697 12.6605 11.3525 12.5391 11.5743 12.3376C11.8451 12.0976 12.0743 11.8151 12.2526 11.5009V11.4951C12.4201 11.1784 12.3634 10.8801 12.1218 10.6776C11.6363 10.2535 11.1114 9.87675 10.5543 9.55261C10.1809 9.35011 9.80175 9.47261 9.64842 9.67761L9.32092 10.0909C9.15259 10.2959 8.84759 10.2676 8.84759 10.2676L8.83926 10.2726C6.56342 9.69178 5.95592 7.38761 5.95592 7.38761C5.95592 7.38761 5.92759 7.07428 6.13842 6.91428L6.54842 6.58428C6.74509 6.42428 6.88176 6.04594 6.67092 5.67261C6.34893 5.11491 5.97296 4.59017 5.54842 4.10594C5.45583 3.99198 5.32598 3.91436 5.18176 3.88678L5.18342 3.88761ZM9.02842 2.88594C8.91792 2.88594 8.81193 2.92984 8.73379 3.00798C8.65565 3.08612 8.61176 3.1921 8.61176 3.30261C8.61176 3.41312 8.65565 3.5191 8.73379 3.59724C8.81193 3.67538 8.91792 3.71928 9.02842 3.71928C10.0826 3.71928 10.9576 4.06344 11.6501 4.72344C12.0059 5.08428 12.2834 5.51178 12.4651 5.98011C12.6476 6.44928 12.7309 6.95011 12.7093 7.45178C12.707 7.50649 12.7155 7.56113 12.7343 7.61256C12.7531 7.66399 12.7819 7.71121 12.8189 7.75153C12.8938 7.83295 12.9979 7.8813 13.1084 7.88594C13.2189 7.89058 13.3268 7.85114 13.4082 7.77628C13.4896 7.70142 13.5379 7.59728 13.5426 7.48678C13.5684 6.86968 13.466 6.25393 13.2418 5.67844C13.0165 5.10022 12.675 4.57438 12.2384 4.13344L12.2301 4.12511C11.3709 3.30428 10.2834 2.88594 9.02842 2.88594ZM9.00009 4.25594C8.88958 4.25594 8.7836 4.29984 8.70546 4.37798C8.62732 4.45612 8.58342 4.5621 8.58342 4.67261C8.58342 4.78312 8.62732 4.8891 8.70546 4.96724C8.7836 5.04538 8.88958 5.08928 9.00009 5.08928H9.01426C9.77426 5.14344 10.3276 5.39678 10.7151 5.81261C11.1126 6.24094 11.3184 6.77344 11.3026 7.43178C11.3 7.54228 11.3415 7.64927 11.4179 7.72921C11.4942 7.80915 11.5992 7.85548 11.7097 7.85803C11.8202 7.86057 11.9272 7.81911 12.0071 7.74276C12.087 7.66642 12.1334 7.56145 12.1359 7.45094C12.1559 6.58678 11.8776 5.84094 11.3259 5.24594V5.24428C10.7618 4.63928 9.98759 4.31928 9.05592 4.25678L9.04176 4.25511L9.00009 4.25594ZM8.98425 5.65178C8.92849 5.64686 8.87231 5.65322 8.81907 5.67049C8.76582 5.68777 8.7166 5.71559 8.67434 5.75231C8.63209 5.78902 8.59766 5.83388 8.57313 5.88419C8.54859 5.9345 8.53444 5.98925 8.53153 6.04515C8.52862 6.10105 8.537 6.15697 8.55617 6.20956C8.57535 6.26215 8.60493 6.31034 8.64314 6.35125C8.68135 6.39216 8.72741 6.42495 8.77857 6.44766C8.82974 6.47037 8.88495 6.48254 8.94092 6.48344C9.28926 6.50178 9.51175 6.60678 9.65176 6.74761C9.79259 6.88928 9.89759 7.11678 9.91676 7.47261C9.9178 7.52853 9.93008 7.58366 9.95288 7.63473C9.97568 7.68579 10.0085 7.73175 10.0495 7.76985C10.0904 7.80796 10.1386 7.83743 10.1912 7.85651C10.2437 7.8756 10.2996 7.88391 10.3554 7.88094C10.4113 7.87798 10.466 7.8638 10.5162 7.83925C10.5665 7.81471 10.6113 7.7803 10.6479 7.73807C10.6846 7.69585 10.7124 7.64667 10.7297 7.59348C10.7469 7.54028 10.7533 7.48415 10.7484 7.42844C10.7218 6.92844 10.5651 6.48678 10.2443 6.16178C9.92175 5.83678 9.48259 5.67844 8.98425 5.65178Z" fill="currentColor"/>
</svg>
