<svg width="29" height="29" viewBox="0 0 29 29" fill="none" xmlns="http://www.w3.org/2000/svg">
<g clip-path="url(#clip0_102_2237)">
<g clip-path="url(#clip1_102_2237)">
<g clip-path="url(#clip2_102_2237)">
<path d="M14.2002 28.48C21.9322 28.48 28.2002 22.212 28.2002 14.48C28.2002 6.74799 21.9322 0.47998 14.2002 0.47998C6.46821 0.47998 0.200195 6.74799 0.200195 14.48C0.200195 22.212 6.46821 28.48 14.2002 28.48Z" fill="#6D4494"/>
<path d="M17.0556 13.5277C17.0556 13.9197 16.4956 13.9197 16.4956 13.5277C16.4396 12.5757 15.9916 12.1277 15.0956 12.0717C14.7036 12.0717 14.7596 11.5117 15.1516 11.5117C16.3276 11.6237 16.9996 12.2957 17.0556 13.5277Z" fill="white"/>
<path d="M17.8957 14.0322C17.9517 12.1842 16.7757 10.7842 14.5917 10.6162C14.1997 10.6162 14.2557 10.0562 14.6477 10.0562C17.1677 10.2242 18.5117 11.9602 18.4557 14.0322C18.4557 14.4242 17.8957 14.4242 17.8957 14.0322Z" fill="white"/>
<path d="M19.9682 14.5919C19.9682 14.9839 19.4082 14.9839 19.4082 14.5919C19.4082 11.0639 17.0562 9.15995 14.2002 9.10395C13.8082 9.10395 13.8082 8.54395 14.2002 8.54395C17.3363 8.59995 19.9122 10.8399 19.9682 14.5919Z" fill="white"/>
<path d="M19.4638 18.8481C19.0158 19.6881 18.1198 20.5841 17.2238 20.3041C16.3278 20.0241 14.1438 18.9601 12.7998 17.8401C12.0718 17.2801 11.4558 16.6081 10.9518 15.9921C10.5038 15.4321 10.0558 14.7601 9.60785 13.9761C8.71185 12.2961 8.48785 11.5681 8.48785 11.5681C8.20785 10.6721 9.10385 9.77615 9.94385 9.32815C10.3358 9.10415 10.7278 9.21615 10.9518 9.49615C10.9518 9.49615 11.5118 10.1121 11.7358 10.4481C11.9598 10.7281 12.2398 11.2321 12.4078 11.4561C12.6878 11.9041 12.5198 12.4081 12.2398 12.6321L11.7358 13.0241C11.4558 13.2481 11.5118 13.6401 11.5118 13.6401C11.5118 13.6401 12.2958 16.5521 15.1518 17.2801C15.1518 17.2801 15.5438 17.3361 15.7678 17.0561L16.1598 16.5521C16.3838 16.2721 16.8318 16.1041 17.3358 16.3841C17.9518 16.7201 18.7918 17.2801 19.2958 17.7841C19.5758 18.0641 19.6878 18.4561 19.4638 18.8481Z" fill="white"/>
</g>
</g>
</g>
<defs>
<clipPath id="clip0_102_2237">
<rect width="28" height="28" fill="white" transform="translate(0.200195 0.47998)"/>
</clipPath>
<clipPath id="clip1_102_2237">
<rect width="28" height="28" fill="white" transform="translate(0.200195 0.47998)"/>
</clipPath>
<clipPath id="clip2_102_2237">
<rect width="28" height="28" fill="white" transform="translate(0.200195 0.47998)"/>
</clipPath>
</defs>
</svg>
