<svg width="29" height="29" viewBox="0 0 29 29" fill="none" xmlns="http://www.w3.org/2000/svg">
<g clip-path="url(#clip0_102_2250)">
<g clip-path="url(#clip1_102_2250)">
<g clip-path="url(#clip2_102_2250)">
<path d="M28.2002 14.48C28.2002 22.208 21.9282 28.48 14.2002 28.48C6.4722 28.48 0.200195 22.208 0.200195 14.48C0.200195 6.75198 6.4722 0.47998 14.2002 0.47998C21.9282 0.47998 28.2002 6.75198 28.2002 14.48Z" fill="#FF0000"/>
<path fill-rule="evenodd" clip-rule="evenodd" d="M22.32 12.5197C21.368 8.76774 18.12 6.13574 14.2 6.13574C13.696 6.13574 13.136 6.19174 12.576 6.30374C7.08797 7.36774 4.23197 13.4717 6.91997 18.3997C6.97597 18.5117 6.97597 18.6237 6.97597 18.7917C6.63997 20.0797 6.24797 21.3677 5.91197 22.6557C5.85597 22.8797 5.85597 22.8797 6.07997 22.8237C7.42397 22.4877 8.76797 22.0957 10.112 21.7597C10.224 21.7037 10.336 21.7597 10.392 21.8157C12.128 22.7117 13.92 22.9357 15.824 22.5997C20.416 21.7037 23.384 17.0557 22.32 12.5197ZM15.376 21.2557C14.984 21.3117 14.648 21.3677 14.424 21.3677C12.968 21.3677 11.792 21.0317 10.672 20.3597C10.504 20.2477 10.392 20.2477 10.224 20.3037C9.49597 20.5277 8.76797 20.6957 7.98397 20.8637C7.81597 20.9197 7.81597 20.8637 7.87197 20.7517C8.03997 20.0237 8.26397 19.3517 8.43197 18.6797C8.48797 18.5117 8.48797 18.3437 8.37597 18.1757C6.86397 15.7677 6.91997 12.6877 8.59997 10.4477C10.336 8.09574 12.744 7.14374 15.6 7.75974C18.4 8.37574 20.248 10.1677 20.864 12.9677C21.816 16.7757 19.24 20.5837 15.376 21.2557Z" fill="#FCFCFC"/>
<path fill-rule="evenodd" clip-rule="evenodd" d="M16.3835 18.3999C16.1035 18.3999 15.8235 18.3439 15.5435 18.2879C13.6395 17.7279 12.1835 16.5519 11.0635 14.9839C10.6155 14.3679 10.2235 13.8079 10.1115 13.0239C9.94349 12.1279 10.2235 11.3999 10.8395 10.7839C11.0635 10.6159 11.6795 10.5039 11.9595 10.6159C12.0715 10.6719 12.1275 10.7279 12.1275 10.8399C12.3515 11.3999 12.6315 11.9599 12.8555 12.5759C12.9115 12.6879 12.8555 12.7999 12.8555 12.9119C12.7435 13.1919 12.5195 13.3599 12.3515 13.5839C12.1835 13.7519 12.1835 13.8639 12.2955 14.0879C12.9675 15.2079 13.9195 16.0479 15.0955 16.4959C15.2635 16.5519 15.4315 16.5519 15.5435 16.3839C15.7675 16.1599 15.9355 15.8799 16.1595 15.5999C16.2715 15.4319 16.4395 15.3759 16.6075 15.4879C16.9995 15.6559 17.3915 15.8799 17.8395 16.0479C17.9515 16.1039 18.0075 16.1599 18.1195 16.1599C18.5115 16.3839 18.5115 16.3839 18.5115 16.8319C18.4555 17.7279 17.7835 18.1199 16.9995 18.3439C16.7195 18.3999 16.5515 18.3999 16.3835 18.3999Z" fill="#FDFDFD"/>
</g>
</g>
</g>
<defs>
<clipPath id="clip0_102_2250">
<rect width="28" height="28" fill="white" transform="translate(0.200195 0.47998)"/>
</clipPath>
<clipPath id="clip1_102_2250">
<rect width="28" height="28" fill="white" transform="translate(0.200195 0.47998)"/>
</clipPath>
<clipPath id="clip2_102_2250">
<rect width="28" height="28" fill="white" transform="translate(0.200195 0.47998)"/>
</clipPath>
</defs>
</svg>
