<svg width="24" height="25" viewBox="0 0 24 25" fill="none" xmlns="http://www.w3.org/2000/svg">
<path d="M3.00024 3.56006H5.00024L5.40024 5.56006M5.40024 5.56006H21.0002L17.0002 13.5601H7.00024M5.40024 5.56006L7.00024 13.5601M7.00024 13.5601L4.70724 15.8531C4.07724 16.4831 4.52324 17.5601 5.41424 17.5601H17.0002M17.0002 17.5601C16.4698 17.5601 15.9611 17.7708 15.586 18.1458C15.211 18.5209 15.0002 19.0296 15.0002 19.5601C15.0002 20.0905 15.211 20.5992 15.586 20.9743C15.9611 21.3493 16.4698 21.5601 17.0002 21.5601C17.5307 21.5601 18.0394 21.3493 18.4145 20.9743C18.7895 20.5992 19.0002 20.0905 19.0002 19.5601C19.0002 19.0296 18.7895 18.5209 18.4145 18.1458C18.0394 17.7708 17.5307 17.5601 17.0002 17.5601ZM9.00024 19.5601C9.00024 20.0905 8.78953 20.5992 8.41446 20.9743C8.03938 21.3493 7.53068 21.5601 7.00024 21.5601C6.46981 21.5601 5.9611 21.3493 5.58603 20.9743C5.21096 20.5992 5.00024 20.0905 5.00024 19.5601C5.00024 19.0296 5.21096 18.5209 5.58603 18.1458C5.9611 17.7708 6.46981 17.5601 7.00024 17.5601C7.53068 17.5601 8.03938 17.7708 8.41446 18.1458C8.78953 18.5209 9.00024 19.0296 9.00024 19.5601Z" stroke="white" stroke-width="2" stroke-linecap="round" stroke-linejoin="round"/>
</svg>
