<svg width="29" height="29" viewBox="0 0 29 29" fill="none" xmlns="http://www.w3.org/2000/svg">
<g clip-path="url(#clip0_102_2230)">
<g clip-path="url(#clip1_102_2230)">
<g clip-path="url(#clip2_102_2230)">
<path d="M14.2256 28.48C21.9576 28.48 28.2256 22.212 28.2256 14.48C28.2256 6.74799 21.9576 0.47998 14.2256 0.47998C6.4936 0.47998 0.225586 6.74799 0.225586 14.48C0.225586 22.212 6.4936 28.48 14.2256 28.48Z" fill="#55ACEE"/>
<path d="M21.812 9.91313C21.288 10.1377 20.714 10.3124 20.1151 10.3873C20.739 10.013 21.1882 9.43898 21.4128 8.74022C20.8388 9.0896 20.2149 9.33915 19.5161 9.46393C18.9671 8.88996 18.1935 8.51562 17.345 8.51562C15.698 8.51562 14.3753 9.83826 14.3753 11.4853C14.3753 11.7099 14.4003 11.9345 14.4502 12.1591C11.9796 12.0343 9.78352 10.8614 8.33611 9.06464C8.08655 9.51384 7.93682 10.013 7.93682 10.562C7.93682 11.5851 8.46088 12.5085 9.25946 13.0326C8.76035 13.0076 8.31115 12.8828 7.91187 12.6582C7.91187 12.6832 7.91187 12.6832 7.91187 12.7081C7.91187 14.1556 8.93504 15.3534 10.2826 15.6279C10.0331 15.7028 9.75857 15.7277 9.50901 15.7277C9.30937 15.7277 9.13468 15.7028 8.95999 15.6778C9.33433 16.8507 10.4324 17.7242 11.73 17.7491C10.7069 18.5477 9.43415 19.0219 8.03664 19.0219C7.78709 19.0219 7.56249 18.9969 7.33789 18.972C8.66053 19.8204 10.2078 20.2946 11.8798 20.2946C17.345 20.2946 20.3397 15.7777 20.3397 11.8347C20.3397 11.7099 20.3397 11.5851 20.3397 11.4604C20.9136 11.0361 21.4128 10.5121 21.812 9.91313Z" fill="#F1F2F2"/>
</g>
</g>
</g>
<defs>
<clipPath id="clip0_102_2230">
<rect width="28" height="28" fill="white" transform="translate(0.200195 0.47998)"/>
</clipPath>
<clipPath id="clip1_102_2230">
<rect width="28" height="28" fill="white" transform="translate(0.200195 0.47998)"/>
</clipPath>
<clipPath id="clip2_102_2230">
<rect width="28" height="28" fill="white" transform="translate(0.200195 0.47998)"/>
</clipPath>
</defs>
</svg>
